<?xml version="1.0" encoding="UTF-8" standalone="no"?>
<!-- Generator: Adobe Illustrator 16.0.0, SVG Export Plug-In . SVG Version: 6.00 Build 0)  -->

<svg
   xmlns:dc="http://purl.org/dc/elements/1.1/"
   xmlns:cc="http://creativecommons.org/ns#"
   xmlns:rdf="http://www.w3.org/1999/02/22-rdf-syntax-ns#"
   xmlns:svg="http://www.w3.org/2000/svg"
   xmlns="http://www.w3.org/2000/svg"
   xmlns:sodipodi="http://sodipodi.sourceforge.net/DTD/sodipodi-0.dtd"
   xmlns:inkscape="http://www.inkscape.org/namespaces/inkscape"
   version="1.1"
   id="Capa_1"
   x="0px"
   y="0px"
   width="554.625px"
   height="554.625px"
   viewBox="0 0 554.625 554.625"
   style="enable-background:new 0 0 554.625 554.625;"
   xml:space="preserve"
   sodipodi:docname="agregar-documento.svg"
   inkscape:version="0.92.3 (2405546, 2018-03-11)"><metadata
   id="metadata47"><rdf:RDF><cc:Work
       rdf:about=""><dc:format>image/svg+xml</dc:format><dc:type
         rdf:resource="http://purl.org/dc/dcmitype/StillImage" /></cc:Work></rdf:RDF></metadata><defs
   id="defs45">
	

		
		
		
	</defs><sodipodi:namedview
   pagecolor="#ffffff"
   bordercolor="#666666"
   borderopacity="1"
   objecttolerance="10"
   gridtolerance="10"
   guidetolerance="10"
   inkscape:pageopacity="0"
   inkscape:pageshadow="2"
   inkscape:window-width="1366"
   inkscape:window-height="716"
   id="namedview43"
   showgrid="false"
   inkscape:zoom="0.42551273"
   inkscape:cx="-50.527278"
   inkscape:cy="277.3125"
   inkscape:window-x="-8"
   inkscape:window-y="-8"
   inkscape:window-maximized="1"
   inkscape:current-layer="Capa_1" />
<path
   d="m 382.5,325.125 c 17.213,0 32.513,3.825 47.812,9.562 V 153 h -95.625 c -21.037,0 -38.25,-17.212 -38.25,-38.25 V 0 H 105.187 C 84.149,0 66.937,17.212 66.937,38.25 v 439.875 c 0,21.037 17.212,38.25 38.25,38.25 H 277.312 C 265.837,497.25 258.187,474.3 258.187,449.437 258.188,380.588 313.65,325.125 382.5,325.125 Z"
   id="path2"
   inkscape:connector-curvature="0"
   style="fill:#d40000" /><path
   d="m 334.688,133.875 h 95.625 L 315.562,0 v 114.75 c 0,11.475 9.563,19.125 19.126,19.125 z"
   id="path4"
   inkscape:connector-curvature="0"
   style="fill:#800000" /><path
   d="m 382.5,344.25 c -57.375,0 -105.188,47.812 -105.188,105.188 0,57.376 47.813,105.187 105.188,105.187 57.375,0 105.188,-47.812 105.188,-105.188 0,-57.376 -47.813,-105.187 -105.188,-105.187 z M 449.438,459 h -57.375 v 57.375 H 372.938 V 459 h -57.375 v -19.125 h 57.375 V 382.5 h 19.125 v 57.375 h 57.375 z"
   id="path6"
   inkscape:connector-curvature="0"
   style="fill:#008000" />
<g
   id="g12">
</g>
<g
   id="g14">
</g>
<g
   id="g16">
</g>
<g
   id="g18">
</g>
<g
   id="g20">
</g>
<g
   id="g22">
</g>
<g
   id="g24">
</g>
<g
   id="g26">
</g>
<g
   id="g28">
</g>
<g
   id="g30">
</g>
<g
   id="g32">
</g>
<g
   id="g34">
</g>
<g
   id="g36">
</g>
<g
   id="g38">
</g>
<g
   id="g40">
</g>
</svg>