<?xml version="1.0" encoding="UTF-8" standalone="no"?>
<!-- Created with Inkscape (http://www.inkscape.org/) -->

<svg
   xmlns:dc="http://purl.org/dc/elements/1.1/"
   xmlns:cc="http://creativecommons.org/ns#"
   xmlns:rdf="http://www.w3.org/1999/02/22-rdf-syntax-ns#"
   xmlns:svg="http://www.w3.org/2000/svg"
   xmlns="http://www.w3.org/2000/svg"
   xmlns:sodipodi="http://sodipodi.sourceforge.net/DTD/sodipodi-0.dtd"
   xmlns:inkscape="http://www.inkscape.org/namespaces/inkscape"
   version="1.1"
   id="svg5081"
   width="473.33334"
   height="189.33333"
   viewBox="0 0 473.33334 189.33333"
   sodipodi:docname="prodep.svg"
   inkscape:version="0.92.3 (2405546, 2018-03-11)">
  <metadata
     id="metadata5087">
    <rdf:RDF>
      <cc:Work
         rdf:about="">
        <dc:format>image/svg+xml</dc:format>
        <dc:type
           rdf:resource="http://purl.org/dc/dcmitype/StillImage" />
        <dc:title></dc:title>
      </cc:Work>
    </rdf:RDF>
  </metadata>
  <defs
     id="defs5085" />
  <sodipodi:namedview
     pagecolor="#ffffff"
     bordercolor="#666666"
     borderopacity="1"
     objecttolerance="10"
     gridtolerance="10"
     guidetolerance="10"
     inkscape:pageopacity="0"
     inkscape:pageshadow="2"
     inkscape:window-width="1366"
     inkscape:window-height="716"
     id="namedview5083"
     showgrid="false"
     inkscape:zoom="0.63697182"
     inkscape:cx="169.52023"
     inkscape:cy="150.00013"
     inkscape:window-x="-8"
     inkscape:window-y="-8"
     inkscape:window-maximized="1"
     inkscape:current-layer="svg5081" />
  <g
     id="g5190"
     transform="translate(0.4300715,-1.1398584)">
    <path
       style="fill:#fefefe;stroke-width:1.33333337"
       d="M 0,94.666665 V 0 H 236.66667 473.33334 V 94.666665 189.33333 H 236.66667 0 Z"
       id="path5206"
       inkscape:connector-curvature="0" />
    <path
       style="fill:#aed19e;stroke-width:1.33333337"
       d="M 394.66667,106.42096 V 76.841931 l 2.75724,-5.695703 2.75724,-5.695702 4.8417,-4.251055 4.84168,-4.251055 6.06773,-2.688462 6.06775,-2.688462 9.49024,-0.08705 9.49024,-0.08705 7.7536,3.967969 7.7536,3.967969 4.74406,6.606804 4.74406,6.606804 0.48864,9.676413 0.48862,9.676413 -2.8762,5.941451 -2.87621,5.941455 -5.80704,5.35274 -5.80704,5.35274 -7.03528,2.08926 -7.03529,2.08926 h -4.18267 -4.18267 l -6.90866,-2.05165 -6.90867,-2.05165 v -0.98501 -0.985 l 2.00341,-2.86027 2.0034,-2.86026 9.86527,0.74611 9.86525,0.74611 6.08106,-2.94379 6.08105,-2.94379 2.79645,-4.524755 2.79646,-4.524752 1.23526,-4.307112 1.23526,-4.307112 -1.37087,-5.09104 -1.37088,-5.09104 -4.2564,-4.847768 -4.25639,-4.847767 -4.31134,-1.801394 -4.31134,-1.801392 h -7.16645 -7.16644 l -5.80607,3.070319 -5.80605,3.070318 -3.07032,5.80606 -3.07032,5.806059 V 107.54304 136 h -5.33333 -5.33334 z m -389.1127115,-0.7543 0.4460416,-28.999995 4.1121839,-7.333333 4.112183,-7.333333 6.344703,-4.315211 6.344702,-4.31521 5.543115,-1.499914 5.543114,-1.499913 8.666666,0.615343 8.666667,0.615344 5.333334,2.749609 5.333333,2.749608 4.265759,4.450172 4.265757,4.450172 2.067576,4.957174 2.067575,4.957176 v 7.89057 7.890569 l -3.723651,7.127882 -3.723651,7.12788 -5.643357,4.30433 -5.643357,4.30434 -4.966326,1.37927 -4.966325,1.37927 -7.333334,-0.0678 -7.333333,-0.0678 -4.566522,-1.59141 L 26.200291,114 l -0.401903,-1.33334 -0.401902,-1.33333 2.340989,-3.04441 2.340988,-3.0444 6.851695,1.58156 6.851695,1.58156 6.349736,-1.77782 6.349737,-1.77781 5.018302,-5.018305 5.018301,-5.018301 0.905268,-4.82549 0.905267,-4.825487 -0.710718,-5.298795 -0.710717,-5.298795 -3.632064,-4.761881 -3.632064,-4.761881 -5.488116,-2.492255 -5.488118,-2.492256 h -6 -6 L 31.333334,62.520056 26,64.981548 l -2.911184,3.175892 -2.911182,3.175892 -1.422151,3.753467 -1.422149,3.753465 v 27.913196 27.9132 H 11.220625 5.1079167 Z M 29.333334,129.4311 v -5.23557 L 27,123.58577 24.666667,122.976 h 6 6 L 34.333334,123.58577 32,124.19553 v 5.23557 5.23556 h -1.333333 -1.333333 z m 9.714685,-0.76444 0.0182,-6.66666 0.557223,3.685 0.557223,3.685 -0.575423,2.98166 -0.575423,2.98167 z m 3.618648,-0.0805 v -6.08049 l 5,0.41382 5,0.41382 V 126 v 2.66666 l -3.666666,0.4219 -3.666667,0.4219 v 2.5781 2.5781 H 44.000001 42.666667 Z M 50.361111,125.58333 50.88889,124 h -2.777779 -2.777777 v 1.11111 1.11111 l 0.916667,0.91667 0.916666,0.91666 1.333334,-0.44444 1.333333,-0.44445 z m 6.241531,5.83941 -2.1255,-3.24392 1.426681,-2.66578 1.42668,-2.66578 2.617719,-0.83083 2.617719,-0.83083 2.717029,1.45411 2.717031,1.45411 v 3.68642 3.68642 l -1.6,1.6 -1.6,1.6 h -3.035929 -3.03593 z m 8.469486,-3.25974 -0.40546,-3.49634 -2.88548,-0.41106 -2.885481,-0.41106 -0.944588,2.97614 -0.944588,2.97613 2.293001,1.67668 2.293,1.67668 1.942528,-0.74541 1.942529,-0.74542 z m 11.816762,5.61477 -0.888889,-0.88888 v -1.15803 -1.15802 l 2.405176,1.28721 2.405176,1.28721 1.760581,-1.0881 1.760582,-1.0881 -3.816119,-1.82901 -3.816119,-1.82902 -0.425466,-2.20927 -0.425466,-2.20926 2.554658,-0.81082 2.554657,-0.81082 2.187838,0.83956 2.187836,0.83955 v 1.21608 1.21609 l -3.333334,-0.83662 -3.333333,-0.83661 v 1.47788 1.47787 h 1.74516 1.745161 l 2.537844,1.85572 2.537843,1.85572 -1.779597,2.14428 -1.779596,2.14428 H 80.72563 77.777778 Z m 12.411443,-2.53124 -1.300332,-3.42013 v -2.57987 -2.57987 h 1.252847 1.252845 l 0.413822,5 0.41382,5 h 2.666666 2.666667 l 0.41382,-5 0.413821,-5 H 98.747155 100 v 3.42099 3.42099 l -1.380244,2.57901 -1.380245,2.57901 H 93.920088 90.600665 Z M 102.84824,129 l -0.18157,-6.33334 h 4.58798 4.58797 l 0.74968,1.21302 0.74969,1.21301 -0.81365,2.12032 -0.81364,2.12032 h -3.76462 -3.76461 l -0.57782,3 -0.57783,3 z m 6.88886,-2.98174 0.2629,-1.31508 -2.33333,-0.44935 -2.33334,-0.44936 V 126 v 2.19553 l 2.07043,-0.4311 2.07043,-0.4311 z m 4.92957,2.6484 v -6 l 5.66667,0.21339 5.66666,0.21338 -4.33333,0.53776 -4.33334,0.53776 v 1.24886 1.24885 H 120.66667 124 V 128 v 1.33333 h -3.33333 -3.33334 v 1.91552 1.91552 l 4.33334,0.53776 4.33333,0.53777 -5.66666,0.21338 -5.66667,0.21338 z M 128.18158,129 128,122.66666 h 5.33334 5.33333 V 125.33333 128 h -1.48668 -1.48668 l 2.18408,3.33333 2.18409,3.33333 h -1.31716 -1.31716 L 136,132 l -1.42716,-2.66667 h -2.52702 -2.52702 l -0.57782,3 -0.57783,3 z M 136,125.33333 V 124 h -2.66666 -2.66667 v 1.33333 1.33333 H 133.33334 136 Z m 5.33334,3.33333 v -6 H 142.66667 144 v 6 6 h -1.33333 -1.33333 z m 6.93333,4.4 -1.6,-1.6 0.0204,-2.73333 0.0204,-2.73333 0.97957,-1.48696 0.97959,-1.48696 2.9318,-0.91458 2.9318,-0.91458 2.73487,2.73488 2.7349,2.73486 v 1.90477 1.90476 l -2.09524,2.09524 -2.09524,2.09523 h -2.97142 -2.97143 z m 7.68023,-1.66934 1.60676,-1.93602 -0.89135,-2.80838 -0.89135,-2.80838 -2.88548,0.41106 -2.88548,0.41106 -0.44998,3.18255 -0.44999,3.18255 1.78332,1.13037 1.78332,1.13037 0.83675,0.0204 0.83673,0.0204 1.60675,-1.93601 z m 5.38644,-2.73066 v -6 h 5.25464 5.25465 l 0.86013,1.39174 0.86015,1.39174 -1.54064,1.85637 -1.54065,1.85636 1.47277,2.7519 1.47277,2.75189 h -1.05952 -1.05952 L 169.64276,132 167.9774,129.33333 H 165.98871 164 V 132 v 2.66666 h -1.33333 -1.33333 z m 8,-3.33333 V 124 H 166.66667 164 v 1.33333 1.33333 h 2.66667 2.66667 z M 84.000001,97.957173 v -20.70949 l 2.067575,-4.957176 2.067576,-4.957175 4.265757,-4.496613 4.265759,-4.496613 6.666662,-3.157028 L 110,52.02605 l 10,0.04549 10,0.04549 4.78694,1.711112 4.78694,1.711112 4.66468,3.557926 4.66468,3.557924 3.40542,6.339106 3.40542,6.339105 0.91556,4.333334 0.91558,4.333333 h -5.33334 -5.33333 l -0.86159,-3.922783 -0.86158,-3.922782 -3.81215,-5.262514 -3.81215,-5.262513 -6.05288,-2.311618 -6.05289,-2.311618 -7.91563,0.572564 -7.91562,0.572566 -4.80934,3.668258 -4.809335,3.668259 -2.654358,5.202973 -2.654359,5.202984 v 19.38645 19.386442 H 89.333335 84.000001 Z M 185.147,116.65669 l -6.18632,-1.98499 -6.66477,-5.9922 -6.66477,-5.9922 -2.24414,-5.608659 -2.24414,-5.608653 v -6.803323 -6.803322 l 2.24414,-5.608654 2.24414,-5.608654 6.6473,-5.9765 6.64731,-5.9765 6.77913,-2.013184 6.77912,-2.013185 h 4.84934 4.84933 l 6.69047,1.986857 6.69048,1.986857 5.46237,3.956926 5.46237,3.956925 3.46914,5.919614 3.46912,5.919615 0.7638,6.469936 0.76378,6.469936 -1.5134,5.6106 -1.51338,5.6106 -4.29704,5.586368 -4.29704,5.58636 -7.09998,3.98822 -7.09998,3.98821 -8.90002,0.46899 -8.90002,0.469 z m 25.18668,-11.48489 5.84228,-2.8282 3.35944,-5.076458 3.35944,-5.07646 0.70182,-5.232368 0.7018,-5.232367 -2.65744,-6.007598 -2.65746,-6.007596 -4.49177,-3.421782 L 210,62.86719 l -6.12818,-1.540227 -6.1282,-1.540227 -5.8718,1.562868 -5.87182,1.562868 -4.49178,3.39914 -4.49178,3.399141 -2.65745,6.007596 -2.65744,6.007598 0.7018,5.232367 0.70181,5.232368 3.33846,5.04474 3.33845,5.044738 5.77563,2.85887 5.77564,2.85887 6.57904,0.001 6.57902,10e-4 z m 49.15363,11.5318 -5.17936,-1.84602 -5.31811,-5.09546 -5.3181,-5.09546 -2.69302,-5.956216 -2.693,-5.956222 v -6.754224 -6.754223 l 2.693,-5.956222 2.69302,-5.956221 5.16413,-4.934897 5.16413,-4.934899 4.66667,-1.915926 4.66667,-1.915927 5.60646,-0.922869 5.60648,-0.92287 7.39352,1.534892 7.39354,1.534891 v 0.373172 0.373171 l -1.35864,3.897397 -1.35864,3.897396 -11.73594,-0.03176 -11.73593,-0.03176 -4.90683,3.73559 -4.90682,3.735592 -1.8843,3.643815 -1.88429,3.643816 -0.846,5.28726 -0.84601,5.28726 2.54232,-7.045813 2.54232,-7.045814 3.18938,-3.414205 3.18938,-3.414216 3.60045,-1.873314 3.60045,-1.873315 h 7.14471 7.14471 l 2.53784,1.855716 2.53785,1.855717 -1.61711,1.948487 -1.61709,1.948486 -6.44511,-0.619292 -6.44509,-0.619293 -4.19824,2.170992 -4.19824,2.170992 -2.02256,3.911217 -2.02257,3.911218 v 4.019818 4.019819 l 4.10185,4.67175 4.10185,4.671752 4.69343,0.880492 4.69343,0.88049 5.26848,-1.57847 5.26849,-1.578478 2.59792,-4.260707 2.59791,-4.260707 0.005,-27.088562 0.005,-27.088563 3.66667,0.421897 3.66667,0.421896 v 25.66745 25.667449 l 1,-7.83e-4 L 300,87.999998 V 61.333332 34.666666 h 5.33334 5.33333 v 28.709492 28.70949 l -2.04125,4.885406 -2.04126,4.885406 -3.27346,4.29173 -3.27347,4.29174 -8.23157,4.11337 -8.23158,4.11336 -9.4537,-0.0585 -9.45371,-0.0585 z m 17.52824,-8.28638 -2.31779,-0.60677 -3.01554,0.57987 -3.01555,0.57986 5.33333,0.0269 5.33334,0.0269 z m 10.83389,-3.00708 5.07655,-2.58986 2.20368,-3.36323 2.20367,-3.363229 -0.0148,-1.046912 -0.0148,-1.046911 -3.54584,4.500287 -3.54585,4.500285 -5.43936,2.47043 -5.43937,2.47043 1.71978,0.0293 1.71979,0.0293 5.07653,-2.58986 z m -30.85977,-3.74348 -3.50923,-3.666662 -2.02137,-4.666666 -2.02136,-4.666667 -0.0521,1.754321 -0.0521,1.754323 1.49626,2.912344 1.49624,2.912345 3.41988,3.666662 3.41986,3.66667 h 0.66667 0.66667 l -3.50924,-3.66667 z m 82.29644,14.37811 -8.04723,-2.6325 -5.50222,-4.7097 -5.50223,-4.7097 -2.78388,-5.750736 -2.78388,-5.750734 0.0293,-7.912367 0.0293,-7.912368 2.71282,-6 2.71283,-5.999999 4.25789,-4.496614 4.2579,-4.496613 6.66666,-3.157028 6.66667,-3.157028 9.42915,-0.01307 9.42915,-0.01307 6.52394,2.222929 6.52394,2.222931 6.18822,6.18822 6.18822,6.18822 2.28066,6.866427 2.28066,6.866427 -0.42196,4.389089 -0.42208,4.389172 -21.66667,0.366361 -21.66667,0.366363 V 84.03302 78.666658 h 15.33334 15.33333 V 76.863843 75.06102 l -3.03943,-4.510207 -3.03942,-4.510207 -5.29391,-2.99837 -5.29391,-2.998369 -8.37616,-0.02193 -8.37616,-0.02193 -4.35276,1.818701 -4.35276,1.8187 -3.56935,4.241924 -3.56934,4.241925 -1.42511,5.292463 -1.42512,5.292463 0.87775,4.678805 0.87776,4.678806 2.88505,4.281136 2.88505,4.28114 5.1707,2.90042 5.1707,2.90042 5.7272,0.85885 5.7272,0.85885 5.40611,-1.61971 5.40611,-1.61971 5.27061,-4.51144 5.2706,-4.511448 4.87546,2.501262 4.87546,2.501266 -4.24736,4.83747 -4.24736,4.83748 -6.90881,3.37588 -6.9088,3.37588 -8,0.68287 -8,0.68288 z"
       id="path5204"
       inkscape:connector-curvature="0" />
    <path
       style="fill:#9b9ca7;stroke-width:1.33333337"
       d="M 394.66667,107.00894 V 77.856917 l 3.53828,-7.100392 3.53827,-7.100391 5.88299,-4.161402 5.88298,-4.1614 4.2454,-1.565229 4.24542,-1.565229 8.83236,-0.10144 8.83237,-0.10144 5.83429,2.057158 5.83431,2.057159 5.15895,4.942841 5.15893,4.942842 2.47844,5.333333 2.47845,5.333333 v 7.333333 7.333333 l -2.46198,5.420502 -2.46199,5.420502 -4.16569,4.74446 -4.1657,4.74447 -7.0097,3.02024 -7.00971,3.02025 -6.66667,0.0912 -6.66666,0.0912 -6.33334,-1.78307 -6.33333,-1.78307 0.0296,-0.82672 0.0296,-0.82672 2.36044,-3.06763 2.36043,-3.06763 6.55102,1.46812 6.55103,1.46811 6.50409,-1.56031 6.5041,-1.56031 5.0749,-4.84017 5.0749,-4.840177 1.65241,-5.538052 1.65241,-5.538051 -0.87006,-4.637867 -0.87007,-4.637868 -3.81416,-5.265295 -3.81416,-5.265296 -5.15495,-2.495946 -5.15496,-2.495948 h -7.33333 -7.33333 l -5.07527,2.458132 -5.07525,2.45813 -3.59142,4.704307 -3.5913,4.704317 -0.66667,30.108054 -0.66667,30.10806 -5,0.41383 -5,0.41381 z M 6.6666668,105.59512 V 76.523584 l 3.4308562,-6.884831 3.430856,-6.88483 5.449107,-4.007319 5.449106,-4.007318 6.631726,-2.202706 6.631725,-2.202705 8.821646,0.633281 8.821645,0.633282 5.459574,2.787894 5.459574,2.787895 4.373887,4.981583 4.373888,4.981582 1.988784,4.759832 1.988784,4.759831 -0.621129,8.681103 -0.62113,8.681103 -2.224428,4.301571 -2.224429,4.301568 -4.438817,4.43882 -4.438819,4.43882 -5.204536,2.51801 -5.204536,2.51802 -8.666667,0.48861 -8.666667,0.48861 -5.258287,-1.86584 -5.258285,-1.86584 -0.376804,-1.22514 -0.376805,-1.22514 2.453601,-3.1937 2.453601,-3.1937 4.380454,1.52703 L 39.064597,108 h 4.510526 4.510527 l 4.938979,-2.06364 4.938978,-2.06364 3.144883,-2.93636 3.144882,-2.936362 2.027161,-3.897958 2.02716,-3.89796 v -6.204081 -6.204082 l -2.02716,-3.89796 -2.027161,-3.897958 -3.144882,-2.936363 -3.144883,-2.936362 -4.938978,-2.063638 -4.938979,-2.063637 -5.709491,0.02928 -5.709492,0.02928 -5.333333,2.461492 L 26,64.981548 l -2.911184,3.175892 -2.911182,3.175892 -1.422151,3.753467 -1.422149,3.753465 v 27.913196 27.9132 H 12 6.6666668 Z M 29.180368,129 28.647451,122.66666 h 1.40854 1.408541 l -0.495566,5 -0.495567,5 -0.380057,1.33334 -0.380058,1.33333 z m 9.867651,-0.33334 0.0182,-6.66666 0.557223,3.685 0.557223,3.685 -0.575423,2.98166 -0.575423,2.98167 z m 18.352231,4.08063 -1.592936,-1.91937 0.429676,-3.74729 0.429677,-3.7473 3.747297,-0.42968 3.747296,-0.42967 1.91937,1.59293 1.919371,1.59294 v 3.12316 3.12316 l -2.579012,1.38025 -2.579011,1.38024 h -1.924396 -1.924396 z m 7.879983,-1.34997 1.606751,-1.93602 -0.891279,-2.80817 -0.891279,-2.80817 -3.540812,0.41085 -3.540812,0.41085 -0.454835,2.39739 -0.454834,2.39739 1.606693,1.93594 1.606694,1.93595 h 1.673481 1.673481 z m 11.669869,2.44166 -0.950101,-0.95009 v -1.27437 -1.27437 l 1.98302,1.64576 1.98302,1.64575 2.01698,-0.77398 2.01698,-0.77399 v -1.37518 -1.37518 h -2.503407 -2.503408 l -1.611378,-1.94159 -1.61138,-1.9416 0.860142,-1.39174 0.860143,-1.39174 h 3.175955 3.175955 l 0.674938,1.09208 0.67494,1.09207 -4.262917,-0.59552 -4.262916,-0.59553 0.976386,1.0354 0.976388,1.03539 3.023612,1.50743 3.023614,1.50744 V 131.37271 134 l -3.383232,0.39454 -3.383231,0.39455 z m 13.333334,0 -0.950101,-0.95009 0.189206,-5.44445 0.189208,-5.44444 0.810792,5.33333 0.810794,5.33333 h 2.666666 2.666667 L 97.52392,127.33333 98.381172,122 l -0.190585,6 -0.190586,6 -3.383232,0.39454 -3.38323,0.39455 z M 102.84824,129 l -0.18157,-6.33334 h 4.7594 4.7594 l -0.42607,3 -0.42607,3 -3.58449,0.41397 -3.5845,0.41397 -0.56726,2.91937 -0.56726,2.91936 z m 7.49177,-3.33334 L 110.88889,124 H 107.44445 104 v 2.09273 2.09274 l 2.89556,-0.42607 2.89557,-0.42607 z m 5.84157,2.66667 0.18157,-6.33333 0.56726,2.91936 0.56726,2.91937 3.5845,0.54752 3.5845,0.54753 -3.66667,0.19978 -3.66667,0.19977 v 1.91552 1.91552 l 4.33334,0.53776 4.33333,0.53777 -5,0.21338 -5,0.21338 z m 12,0.66667 L 128,122.66666 h 4.58798 4.58798 l 0.86014,1.39174 0.86014,1.39174 -1.65828,1.99811 -1.65828,1.9981 1.5435,1.54349 1.54349,1.54349 v 1.36335 1.36333 l -2.0756,-2.96334 -2.07561,-2.96334 h -2.49833 -2.49833 l -0.57782,3 -0.57783,3 z m 7.03505,-1.80638 2.10139,-0.80638 -0.7377,-1.19362 L 135.84263,124 h -3.25465 -3.25464 v 1.11111 1.11111 l 0.88888,0.88889 0.88889,0.88889 h 1.00206 1.00207 z m 7.83139,1.47304 0.0181,-6.66666 0.55723,3.685 0.55722,3.685 -0.57542,2.98166 -0.57543,2.98167 0.0181,-6.66667 z m 5.71389,3.90477 -2.09524,-2.09524 v -2.40817 -2.40817 l 1.91937,-1.59294 1.91938,-1.59293 3.74729,0.42967 3.74729,0.42968 0.42968,3.7473 0.42968,3.74729 -1.59294,1.91937 -1.59294,1.91937 h -2.40817 -2.40816 z m 7.02141,-0.4093 1.78332,-1.13037 -0.44998,-3.18255 -0.44999,-3.18255 -3.55221,-0.41085 -3.55222,-0.41085 -0.89128,2.80817 -0.89128,2.80817 1.60676,1.93602 1.60675,1.93601 1.5034,-0.0204 1.50341,-0.0204 1.78332,-1.13036 z M 162.84824,129 l -0.18157,-6.33334 h 4.83333 4.83334 l -0.83818,4.19088 -0.83817,4.19089 1.63116,2.14245 1.63116,2.14245 -3.37892,-3 -3.37892,-3 h -1.488 -1.488 l -0.57783,3 -0.57782,3 z m 7.49178,-3.33334 L 170.8889,124 H 167.44444 164 v 2.09273 2.09274 l 2.89556,-0.42607 2.89556,-0.42607 z m -126.319602,1.91553 -0.02042,-5.08448 4.333333,0.41781 4.333333,0.41781 V 126 v 2.66666 l -3.333333,0.46776 -3.333333,0.46775 -0.979583,1.53225 -0.979583,1.53224 z M 51.333334,126 v -1.33334 l -3,-0.42606 -3,-0.42607 V 126 v 2.18547 l 3,-0.42607 3,-0.42607 z M 84.000001,97.957173 v -20.70949 l 2.067575,-4.957176 2.067576,-4.957175 4.265757,-4.450172 4.265759,-4.450172 L 102,55.672379 l 5.33333,-2.760609 9.66068,-0.630844 9.66068,-0.630844 6.07646,1.701304 6.07647,1.701304 6.52149,5.863388 6.52151,5.863389 2.74136,7.326949 2.74136,7.326949 v 1.283318 1.283316 h -5.12228 -5.12228 l -1.54383,-5.152802 -1.54381,-5.152801 -2.79327,-3.551065 -2.79327,-3.551066 -5.54063,-2.840597 -5.54063,-2.840597 -7.33334,-0.0043 -7.33333,-0.0043 -4,2.096302 -4,2.096303 -3.58184,3.785702 -3.581846,3.78582 -1.418159,3.753467 -1.418157,3.753465 v 19.246535 19.246525 h -5.333333 -5.333334 z m 104.666669,19.458407 -4,-0.97812 -5.33333,-2.76856 L 174,110.90034 169.73424,106.45017 165.46848,102 l -2.06757,-4.957176 -2.06757,-4.957176 v -7.418983 -7.418982 l 1.8332,-4.387479 1.83321,-4.387479 4.38009,-4.988659 4.38011,-4.988659 6.78669,-3.508364 6.7867,-3.508364 10.00769,-0.05513 10.00769,-0.05513 7.63176,3.733874 7.63176,3.733874 4.01675,4.873003 4.01673,4.873004 2.17555,6.549944 2.17555,6.549942 -0.78511,6.628905 -0.78509,6.628904 -3.46912,5.919621 -3.46914,5.91961 -5.46237,3.95693 -5.46237,3.95692 -6.69048,1.98686 -6.69047,1.98686 -4.758,-0.13648 -4.758,-0.13648 z m 21.71979,-11.94037 4.94688,-2.52479 2.17254,-2.47521 2.17255,-2.475212 2.16079,-4.26712 L 224,89.465758 v -4.775705 -4.775704 l -1.80138,-4.31134 -1.8014,-4.311338 -4.82883,-4.239768 -4.82883,-4.239767 -5.03645,-1.398633 -5.03644,-1.398632 H 198 195.33334 l -5.03644,1.398632 -5.03646,1.398633 -4.82882,4.239767 -4.82883,4.239768 -1.8014,4.311338 L 172,79.914349 v 4.762608 4.762609 l 2.52479,4.946883 2.52479,4.946883 2.47521,2.166458 2.47521,2.16645 4,2.1135 4,2.11349 7.71979,0.0534 7.71979,0.0534 4.94688,-2.52478 z m 52.27158,11.94567 -3.34197,-1.01658 -3.99136,-2.08312 -3.99137,-2.08311 -3.51998,-3.7857 -3.51997,-3.78571 -2.81336,-5.613544 -2.81336,-5.61355 v -6.231757 -6.231758 l 1.54741,-5.164795 1.54742,-5.164796 4.71177,-5.504654 4.71177,-5.504655 6.74082,-3.138884 6.74081,-3.138884 8.16667,-0.01307 8.16666,-0.01307 4.04752,0.809502 4.04751,0.809503 -1.41212,4.190497 -1.41212,4.190498 -0.26911,0.355932 -0.26909,0.355932 -6.53296,-1.502584 -6.53296,-1.502583 -5.74223,1.551724 -5.74224,1.551725 -5.24506,4.738597 -5.24506,4.738599 -1.43786,5.339825 -1.43787,5.339827 0.90185,5.338006 0.90186,5.338008 4.85664,5.382319 4.85664,5.38232 4.2905,1.79618 4.29051,1.79625 H 274 h 6.08566 l 4.90837,-2.05085 4.90837,-2.05085 2.57044,-2.28248 2.57044,-2.28249 2.44908,-5.333325 2.44908,-5.333334 0.0293,-27.666666 L 300,34.666666 h 5.33334 5.33333 v 27.511973 27.511974 l -1.62149,5.488025 -1.62148,5.488022 -6.84803,6.8898 -6.84801,6.8898 -7.10583,2.1102 -7.10583,2.1102 -6.758,-0.1146 -6.758,-0.1146 z m 81.00319,-0.13448 -5.00543,-1.24699 -6.3279,-3.22106 -6.3279,-3.22106 -2.91724,-3.13198 -2.91724,-3.13198 -2.72014,-5.999998 -2.72015,-6 v -7.333333 -7.333334 l 2.50475,-5.516006 2.50474,-5.516008 4.81046,-5.324593 4.81044,-5.324595 6.92514,-2.979116 6.92515,-2.979116 10.84099,0.569007 10.841,0.569006 5.88939,3.04085 5.88938,3.040848 3.13199,2.876529 3.13197,2.876528 3.00736,6 3.00736,6 0.85338,4.463573 0.85337,4.463573 -0.81677,3.254289 -0.81678,3.25429 -21.17594,-0.170935 -21.17594,-0.170936 V 83.88026 78.666665 h 15.47788 15.47788 l -0.90345,-3.666666 -0.90344,-3.666667 -4.22167,-4.38734 -4.22166,-4.387341 -6.99014,-2.032084 -6.99012,-2.032085 -6.06464,0.909449 -6.06464,0.909449 -4.26628,2.875039 -4.26627,2.875037 -2.99926,4.450609 -2.99926,4.450608 -0.87165,4.646278 -0.87164,4.646278 1.56599,5.226824 1.566,5.226825 4.06534,4.630174 4.06535,4.630168 6.78317,2.01439 6.78318,2.01439 2.758,-0.007 2.758,-0.007 5.09437,-1.41462 5.09438,-1.41463 5.1519,-4.65445 5.15192,-4.654443 5.08706,2.6267 5.08704,2.626703 -6.198,5.96437 -6.198,5.96437 -6.46867,2.13988 -6.46867,2.13987 -6,0.61226 -6,0.61226 -5.00544,-1.24699 z M 262.69391,105 l -5.87112,-3 -2.49991,-3.436527 -2.49989,-3.436525 -0.99756,-4.563475 -0.99756,-4.563475 0.95236,-4.502929 0.95235,-4.502928 2.54942,-3.414686 2.54944,-3.414687 3.56636,-2.662675 3.56636,-2.662675 7.83136,-0.56647 7.83135,-0.566468 2.87019,1.536076 2.87018,1.536076 -1.29528,2.420245 -1.29528,2.420246 -6.50086,-0.624651 -6.50087,-0.624652 -4.19824,2.170992 -4.19824,2.170992 -2.02256,3.911217 -2.02257,3.911218 v 3.527157 3.527157 l 2.18072,3.691668 2.18072,3.691667 3.69166,2.180722 3.69167,2.18072 h 4.86049 4.8605 l 3.91121,-2.022568 3.91123,-2.022569 2.02256,-3.911217 2.02257,-3.911218 V 62.732879 35.999999 h 3.2798 3.2798 L 297.61314,62.942115 298,89.88423 l -2.14502,4.724551 -2.14503,4.724551 -2.57044,2.282478 -2.57044,2.28249 -4.90837,2.05085 L 278.75232,108 h -5.09364 -5.09364 z"
       id="path5202"
       inkscape:connector-curvature="0" />
    <path
       style="fill:#8aba72;stroke-width:1.33333337"
       d="M 394.66667,107.00894 V 77.856917 l 3.53828,-7.100392 3.53827,-7.100391 5.88299,-4.161402 5.88298,-4.1614 4.2454,-1.565229 4.24542,-1.565229 8.83236,-0.10144 8.83237,-0.10144 5.83429,2.057158 5.83431,2.057159 5.15895,4.942841 5.15893,4.942842 2.47844,5.333333 2.47845,5.333333 v 7.333333 7.333333 l -2.46198,5.420502 -2.46199,5.420502 -4.16569,4.74446 -4.1657,4.74447 -7.0097,3.02024 -7.00971,3.02025 -6.66667,0.0912 -6.66666,0.0912 -6.33334,-1.78307 -6.33333,-1.78307 0.0296,-0.82672 0.0296,-0.82672 2.36044,-3.06763 2.36043,-3.06763 6.55102,1.46812 6.55103,1.46811 6.50409,-1.56031 6.5041,-1.56031 5.0749,-4.84017 5.0749,-4.840177 1.65241,-5.538052 1.65241,-5.538051 -0.87006,-4.637867 -0.87007,-4.637868 -3.81416,-5.265295 -3.81416,-5.265296 -5.15495,-2.495946 -5.15496,-2.495948 h -7.33333 -7.33333 l -5.07527,2.458132 -5.07525,2.45813 -3.59142,4.704307 -3.5913,4.704317 -0.66667,30.108054 -0.66667,30.10806 -5,0.41383 -5,0.41381 z m -387.9707206,-1.34228 0.029283,-28.999995 2.4361183,-5.333333 2.4361183,-5.333333 6.074642,-5.577409 6.074643,-5.57741 7.035292,-2.089257 7.035291,-2.089257 h 5.515997 5.515997 l 6.575335,1.961701 6.575335,1.961703 5.172,4.277146 5.172,4.277147 3.148308,6.761152 3.148308,6.76115 -0.01625,6.666667 -0.01625,6.666666 -2.712821,6 -2.71282,6.000002 -4.257897,4.45017 -4.257896,4.45017 -5.333334,2.86008 -5.333333,2.86009 -10.666667,-0.0531 -10.666667,-0.0531 -3.744143,-1.58697 -3.744141,-1.58698 2.380524,-4.0299 2.380524,-4.02991 2.030284,0.78771 2.030285,0.78771 6.324186,0.75662 6.324184,0.75662 5.947016,-2.27118 5.947016,-2.27119 4.001988,-4.55801 4.001987,-4.558012 1.604529,-5.35544 1.60452,-5.355439 -1.62274,-5.416224 -1.62274,-5.416223 -4.676266,-5.176069 -4.676269,-5.176069 -4.720004,-1.557742 -4.720004,-1.557741 -7.734073,0.559432 -7.734074,0.559432 -4.720249,3.234367 -4.720249,3.234366 -3.07105,5.356236 -3.071049,5.356235 v 28.330941 28.33094 l -5,0.003 -4.9999999,0.002 z M 29.180368,129 28.647451,122.66666 h 1.40854 1.408541 l -0.495566,5 -0.495567,5 -0.380057,1.33334 -0.380058,1.33333 z m 9.867651,-0.33334 0.0182,-6.66666 0.557223,3.685 0.557223,3.685 -0.575423,2.98166 -0.575423,2.98167 z m 18.352231,4.08063 -1.592936,-1.91937 0.429676,-3.74729 0.429677,-3.7473 3.747297,-0.42968 3.747296,-0.42967 1.91937,1.59293 1.919371,1.59294 v 3.12316 3.12316 l -2.579012,1.38025 -2.579011,1.38024 h -1.924396 -1.924396 z m 7.879983,-1.34997 1.606751,-1.93602 -0.891279,-2.80817 -0.891279,-2.80817 -3.540812,0.41085 -3.540812,0.41085 -0.454835,2.39739 -0.454834,2.39739 1.606693,1.93594 1.606694,1.93595 h 1.673481 1.673481 z m 11.669869,2.44166 -0.950101,-0.95009 v -1.27437 -1.27437 l 1.98302,1.64576 1.98302,1.64575 2.01698,-0.77398 2.01698,-0.77399 v -1.37518 -1.37518 h -2.503407 -2.503408 l -1.611378,-1.94159 -1.61138,-1.9416 0.860142,-1.39174 0.860143,-1.39174 h 3.175955 3.175955 l 0.674938,1.09208 0.67494,1.09207 -4.262917,-0.59552 -4.262916,-0.59553 0.976386,1.0354 0.976388,1.03539 3.023612,1.50743 3.023614,1.50744 V 131.37271 134 l -3.383232,0.39454 -3.383231,0.39455 z m 13.333334,0 -0.950101,-0.95009 0.189206,-5.44445 0.189208,-5.44444 0.810792,5.33333 0.810794,5.33333 h 2.666666 2.666667 L 97.52392,127.33333 98.381172,122 l -0.190585,6 -0.190586,6 -3.383232,0.39454 -3.38323,0.39455 z M 102.84824,129 l -0.18157,-6.33334 h 4.7594 4.7594 l -0.42607,3 -0.42607,3 -3.58449,0.41397 -3.5845,0.41397 -0.56726,2.91937 -0.56726,2.91936 z m 7.49177,-3.33334 L 110.88889,124 H 107.44445 104 v 2.09273 2.09274 l 2.89556,-0.42607 2.89557,-0.42607 z m 5.84157,2.66667 0.18157,-6.33333 0.56726,2.91936 0.56726,2.91937 3.5845,0.54752 3.5845,0.54753 -3.66667,0.19978 -3.66667,0.19977 v 1.91552 1.91552 l 4.33334,0.53776 4.33333,0.53777 -5,0.21338 -5,0.21338 z m 12,0.66667 L 128,122.66666 h 4.58798 4.58798 l 0.86014,1.39174 0.86014,1.39174 -1.65828,1.99811 -1.65828,1.9981 1.5435,1.54349 1.54349,1.54349 v 1.36335 1.36333 l -2.0756,-2.96334 -2.07561,-2.96334 h -2.49833 -2.49833 l -0.57782,3 -0.57783,3 z m 7.03505,-1.80638 2.10139,-0.80638 -0.7377,-1.19362 L 135.84263,124 h -3.25465 -3.25464 v 1.11111 1.11111 l 0.88888,0.88889 0.88889,0.88889 h 1.00206 1.00207 z m 7.83139,1.47304 0.0181,-6.66666 0.55723,3.685 0.55722,3.685 -0.57542,2.98166 -0.57543,2.98167 0.0181,-6.66667 z m 5.71389,3.90477 -2.09524,-2.09524 v -2.40817 -2.40817 l 1.91937,-1.59294 1.91938,-1.59293 3.74729,0.42967 3.74729,0.42968 0.42968,3.7473 0.42968,3.74729 -1.59294,1.91937 -1.59294,1.91937 h -2.40817 -2.40816 z m 7.02141,-0.4093 1.78332,-1.13037 -0.44998,-3.18255 -0.44999,-3.18255 -3.55221,-0.41085 -3.55222,-0.41085 -0.89128,2.80817 -0.89128,2.80817 1.60676,1.93602 1.60675,1.93601 1.5034,-0.0204 1.50341,-0.0204 1.78332,-1.13036 z M 162.84824,129 l -0.18157,-6.33334 h 4.83333 4.83334 l -0.83818,4.19088 -0.83817,4.19089 1.63116,2.14245 1.63116,2.14245 -3.37892,-3 -3.37892,-3 h -1.488 -1.488 l -0.57783,3 -0.57782,3 z m 7.49178,-3.33334 L 170.8889,124 H 167.44444 164 v 2.09273 2.09274 l 2.89556,-0.42607 2.89556,-0.42607 z m -126.319602,1.91553 -0.02042,-5.08448 4.333333,0.41781 4.333333,0.41781 V 126 v 2.66666 l -3.333333,0.46776 -3.333333,0.46775 -0.979583,1.53225 -0.979583,1.53224 z M 51.333334,126 v -1.33334 l -3,-0.42606 -3,-0.42607 V 126 v 2.18547 l 3,-0.42607 3,-0.42607 z m 138.458336,-8.72189 -5.54168,-1.09638 -5.31507,-2.71154 -5.31506,-2.71155 -4.59586,-5.36922 -4.59584,-5.36922 -1.54741,-5.164792 -1.54741,-5.164795 v -5.023948 -5.023948 l 1.54741,-5.164794 1.54741,-5.164796 4.48692,-5.241965 4.48694,-5.241966 7.59292,-3.714869 7.5929,-3.714869 9.37275,0.11028 9.37275,0.11028 4.85274,2.060434 4.85276,2.060435 5.57714,5.038609 5.57713,5.038608 2.5348,4.968597 2.53479,4.968598 0.82805,5.178369 0.82805,5.178369 -1.55902,5.789787 -1.55903,5.789786 -3.34033,5.04758 -3.34032,5.04757 -5.2218,3.45562 -5.22179,3.45562 -7.61839,1.98434 -7.61838,1.98432 -2.0532,-0.14608 -2.0532,-0.14609 z m 20.85088,-11.93247 5.20297,-2.65436 3.47428,-4.555028 3.4743,-4.555028 0.76532,-4.716106 0.76532,-4.716105 -0.8948,-4.769681 -0.8948,-4.769683 -4.25614,-4.847465 -4.25613,-4.847465 -5.34476,-2.428077 -5.34477,-2.428078 H 198 192.66667 l -5.34477,2.428078 -5.34476,2.428077 -4.25614,4.847465 -4.25613,4.847465 -0.8948,4.769683 -0.8948,4.769681 0.76532,4.716105 0.76532,4.716106 3.46861,4.547581 3.4686,4.547585 4.92844,2.60287 4.92844,2.60288 7.71979,0.0589 7.71979,0.0589 5.20297,-2.65436 z m 52.01549,12.07524 -3.34197,-1.01658 -3.99136,-2.08312 -3.99137,-2.08311 -3.51998,-3.7857 -3.51997,-3.78571 -2.81336,-5.613544 -2.81336,-5.61355 v -6.231757 -6.231758 l 1.54741,-5.164795 1.54742,-5.164796 4.71177,-5.504654 4.71177,-5.504655 6.74082,-3.138884 6.74081,-3.138884 8.16667,-0.01307 8.16666,-0.01307 4.04752,0.809502 4.04751,0.809503 -1.41212,4.190497 -1.41212,4.190498 -0.26911,0.355932 -0.26909,0.355932 -6.53296,-1.502584 -6.53296,-1.502583 -5.74223,1.551724 -5.74224,1.551725 -5.24506,4.738597 -5.24506,4.738599 -1.43786,5.339825 -1.43787,5.339827 0.90185,5.338006 0.90186,5.338008 4.85664,5.382319 4.85664,5.38232 4.2905,1.79618 4.29051,1.79625 H 274 h 6.08566 l 4.90837,-2.05085 4.90837,-2.05085 2.57044,-2.28248 2.57044,-2.28249 2.44908,-5.333325 2.44908,-5.333334 0.0293,-27.666666 L 300,34.666666 h 5.33334 5.33333 v 27.511973 27.511974 l -1.62149,5.488025 -1.62148,5.488022 -6.84803,6.8898 -6.84801,6.8898 -7.10583,2.1102 -7.10583,2.1102 -6.758,-0.1146 -6.758,-0.1146 z M 84.013027,97.666665 l 0.01307,-19.666666 3.148308,-6.761151 3.148308,-6.761152 5.172,-4.284652 5.171997,-4.284652 7.23338,-2.116654 7.23339,-2.116655 8.76661,0.629344 8.76662,0.629344 5.33333,2.744337 5.33334,2.744336 3.49406,3.788778 3.49406,3.788777 2.09801,3.333333 2.098,3.333333 1.2662,5.666667 1.26621,5.666667 h -5.19161 -5.1916 v -2.066214 -2.066213 l -2.15221,-4.26712 -2.15222,-4.26712 -3.39642,-3.631025 -3.39643,-3.631024 -6.57991,-2.185496 -6.57992,-2.185497 -5.45612,0.872469 -5.45612,0.872468 -5.21273,2.929723 -5.21274,2.929722 -3.202627,5.464807 -3.202591,5.464806 v 19.549524 19.549521 h -5.333333 -5.333334 l 0.01307,-19.666665 z m 253.101473,17.109955 -6.21883,-2.43198 -4.10936,-2.92612 -4.10935,-2.92611 -3.42833,-5.85 -3.42832,-5.849992 -0.74453,-7.213873 -0.74455,-7.213872 2.35975,-7.104521 2.35974,-7.10452 6.18822,-6.18822 6.18822,-6.18822 6.52394,-2.22293 6.52394,-2.22293 h 6.85382 6.85381 l 6.69047,1.986858 6.69048,1.986857 5.37141,3.891032 5.37142,3.891032 3.51344,7.050569 3.51345,7.050571 v 6.404873 6.404874 h -21.33333 -21.33334 v -4.666666 -4.666667 h 15.33334 15.33333 v -2.175954 -2.175955 l -2.60079,-4.208165 -2.60078,-4.208165 -5.06588,-2.830496 -5.06588,-2.830496 -6.0948,-0.901006 -6.09481,-0.901006 -5.58937,1.505061 -5.58937,1.505061 -4.84778,4.256396 -4.84776,4.256397 -1.8014,4.311339 -1.80138,4.31134 v 4.752316 4.752316 l 1.80138,4.31134 1.8014,4.311338 4.82883,4.239764 4.82883,4.23977 5.03645,1.39863 5.03644,1.39864 4.73821,0.007 4.73821,0.007 6.95153,-3.46409 6.95152,-3.46409 1.33844,-2.500904 1.33844,-2.5009 4.63849,2.211941 4.6385,2.211943 v 0.90657 0.90657 l -2.69124,3.42136 -2.69124,3.42136 -8.18839,4.09179 -8.18839,4.09172 -9.45371,-0.0624 -9.4537,-0.0624 z m -72.12714,-8.61202 -5.01262,-1.85905 -1.97126,-1.636 -1.97126,-1.636 -2.84122,-4.597181 -2.84121,-4.597181 0.58396,-7.041775 0.58396,-7.041773 3.10924,-4.366524 3.10924,-4.366524 5.46524,-2.482015 5.46524,-2.482013 4.9132,-0.02928 4.9132,-0.02928 3.47379,1.320732 3.47378,1.320732 -1.34804,2.518835 -1.34804,2.518834 -4.37228,-0.92563 L 274,69.827876 l -4.66666,1.01528 -4.66667,1.01528 -3.66667,4.09182 -3.66666,4.091819 v 4.711844 4.711845 l 2.02257,3.911217 2.02256,3.911217 4.19824,2.170992 4.19824,2.17099 6.56457,-0.63077 6.56458,-0.63077 3.54796,-3.544594 L 290,93.27945 l 0.66667,-28.306392 0.66667,-28.306392 3,-0.426068 3,-0.426068 v 28.268689 28.268689 l -2.80103,4.53216 -2.80103,4.532162 -5.1947,2.65014 -5.19471,2.65014 -5.67093,0.65357 L 270,108.02365 Z"
       id="path5200"
       inkscape:connector-curvature="0" />
    <path
       style="fill:#6e6e81;stroke-width:1.33333337"
       d="m 6.6959494,105.66666 0.029283,-28.999995 2.4361183,-5.333333 2.4361183,-5.333333 6.074642,-5.577409 6.074643,-5.57741 7.035292,-2.089257 7.035291,-2.089257 h 5.515997 5.515997 l 6.575335,1.961701 6.575335,1.961703 5.172,4.277146 5.172,4.277147 3.148308,6.761152 3.148308,6.76115 -0.01625,6.666667 -0.01625,6.666666 -2.712821,6 -2.71282,6.000002 -4.257897,4.45017 -4.257896,4.45017 -5.333334,2.86008 -5.333333,2.86009 -10.666667,-0.0531 -10.666667,-0.0531 -3.744143,-1.58697 -3.744141,-1.58698 2.380524,-4.0299 2.380524,-4.02991 2.030284,0.78771 2.030285,0.78771 6.324186,0.75662 6.324184,0.75662 5.947016,-2.27118 5.947016,-2.27119 4.001988,-4.55801 4.001987,-4.558012 1.604529,-5.35544 1.60452,-5.355439 -1.62274,-5.416224 -1.62274,-5.416223 -4.676266,-5.176069 -4.676269,-5.176069 -4.720004,-1.557742 -4.720004,-1.557741 -7.734073,0.559432 -7.734074,0.559432 -4.720249,3.234367 -4.720249,3.234366 -3.07105,5.356236 -3.071049,5.356235 v 28.330941 28.33094 l -5,0.003 -4.9999999,0.002 z m 32.3520696,23 0.0182,-6.66666 0.557223,3.685 0.557223,3.685 -0.575423,2.98166 -0.575423,2.98167 z m 23.606838,4.28019 3.321523,-1.6805 0.490132,-2.54505 0.49013,-2.54504 -2.399826,-1.7548 -2.399827,-1.7548 h 1.321505 1.321507 l 1.6,1.6 1.6,1.6 v 2.30477 2.30476 l -2.095239,2.09524 -2.095237,2.09523 -2.238096,-0.0197 -2.238095,-0.0196 z m 15.011811,0.86144 -1.666667,-0.69718 v -1.48889 -1.48889 l 1.6,1.6 1.6,1.6 h 2.4 2.4 v -1.70768 -1.70769 l -4.132985,-1.56002 -4.132986,-1.56003 0.549652,-1.64896 0.549652,-1.64895 1.916667,-0.51818 1.916667,-0.51817 -1.961387,1.36234 -1.961385,1.36235 0.628052,0.46919 0.628053,0.46919 3.761607,1.61798 3.761607,1.61798 -0.441895,2.31866 -0.441893,2.31866 -2.653047,0.25273 -2.653046,0.25273 z m 15.416667,-0.0524 1.75,-0.7003 0.805556,0.80555 0.805554,0.80556 -2.555554,-0.10533 -2.555556,-0.1052 1.75,-0.70029 z m 9.764905,-4.84037 -0.18157,-6.41781 4.33333,0.41781 4.33333,0.41781 V 126 v 2.66666 l -3.58449,0.41397 -3.5845,0.41397 -0.56726,2.91937 -0.56726,2.91936 z M 110.66667,126 v -2 H 107.33333 104 v 2 2 h 3.33333 3.33334 z M 116,133.60106 v -1.06559 l 4.66667,0.5448 4.66667,0.54481 v 0.5208 0.52078 H 120.66667 116 Z M 128.10526,129 128,122.66666 h 1.0656 1.0656 l -0.49557,5 -0.49556,5 -0.46477,1.33334 -0.46477,1.33333 z m 7.68612,2.45059 -2.20863,-2.95489 2.20863,-1.51217 2.20862,-1.51217 -2,-1.38193 -2,-1.38193 1.58798,-0.0204 1.58798,-0.0204 0.86014,1.39174 0.86014,1.39174 -1.61137,1.9416 -1.61139,1.94158 1.6866,2.03222 1.68659,2.03222 -0.52333,0.50387 L 138,134.40549 Z m 7.25664,-2.78393 0.0181,-6.66666 0.55723,3.685 0.55722,3.685 -0.57542,2.98166 -0.57543,2.98167 0.0181,-6.66667 z m 5.71389,3.90477 -2.09524,-2.09524 v -2.30476 -2.30477 l 1.6,-1.6 1.6,-1.6 1.4,0.0406 1.4,0.0405 -2.33333,1.35904 L 148,125.46584 v 2.43716 2.43715 l 1.93595,1.60669 1.93595,1.60669 2.39738,-0.45705 2.39739,-0.45705 0.43568,-3.05977 0.43569,-3.05977 -1.76902,-2.25994 L 154,122 l 2.33334,1.82992 2.33333,1.82993 v 2.90341 2.9034 l -1.6,1.6 -1.6,1.6 h -2.30476 -2.30476 z m 21.00091,-1.03083 -2.71807,-3.12606 2.14429,-1.47159 2.1443,-1.47159 -2,-1.50386 -2,-1.50385 2,0.58046 2,0.58046 -0.2858,3.77504 -0.28579,3.77505 1.44905,1.746 1.44906,1.746 h -0.58948 -0.58948 z M 394.66667,107.57085 V 80.475036 l 2.08572,-6.121245 2.08572,-6.121244 4.656,-4.794131 4.656,-4.794129 5.59162,-2.876371 5.59161,-2.876369 10.05828,-0.601165 10.05827,-0.601166 6.99196,3.00786 6.99196,3.00786 5.04841,5.735296 5.04841,5.735297 1.56802,5.233594 1.56802,5.233594 v 4.60779 4.607787 l -2.0372,5.97886 -2.0372,5.978856 -3.9607,4.80502 -3.96071,4.80502 -6.93055,3.45364 -6.93056,3.45364 h -7.81444 -7.81445 l -5.90799,-1.48765 -5.90798,-1.48764 2.31281,-3.91527 2.3128,-3.91527 2.67143,0.73696 2.67141,0.73696 4.72268,0.79202 4.72268,0.79202 5.55003,-1.49446 5.55002,-1.49447 4.1191,-3.46599 4.11909,-3.465984 2.6082,-5.112495 2.6082,-5.112495 v -4.772901 -4.772901 l -2.6082,-5.112495 -2.6082,-5.112494 -4.09987,-3.449816 -4.09988,-3.449815 -4.95858,-1.377137 -4.9586,-1.377136 h -3.33334 -3.33333 l -4.9586,1.377136 -4.95859,1.377137 -4.08929,3.440915 -4.08929,3.440916 -2.27518,4.174512 -2.27517,4.174512 -0.45819,28.333331 -0.45818,28.33333 h -4.5521 -4.55208 z m -337.77778,24.87359 -0.888889,-0.88889 v -2.94785 -2.94785 l 2.333333,-1.82993 2.333334,-1.82992 -1.823569,2.32567 -1.823566,2.32567 0.63867,3.341 0.638672,3.34099 H 58.037327 57.777778 Z M 89.696487,128 v -6 l 0.577825,3 0.577825,3 -0.577825,3 -0.577825,3 z m 7.74211,3.22222 0.105267,-2.55556 0.700292,1.75 0.700292,1.75 -0.805555,0.80556 -0.805558,0.80555 z M 44.000001,126 v -3.33334 h 3.92131 3.921311 l 0.860143,1.39174 0.860142,1.39174 -1.61138,1.9416 -1.611378,1.94159 h -3.170075 -3.170073 z m 7.67334,-0.33334 L 52.222223,124 h -3.444445 -3.444444 v 2.09273 2.09274 l 2.895563,-0.42607 2.895562,-0.42607 z M 162.66667,126 v -3.33334 h 1.14844 1.14844 L 164.32634,126 l -0.6372,3.33333 h -0.51124 -0.51123 z m -80.000002,-2 -2,-1.2925 1.587977,-0.0204 1.587978,-0.0204 0.824045,1.33334 0.824045,1.33333 -0.412022,-0.0204 -0.412023,-0.0204 z m 107.125002,-6.72189 -5.54168,-1.09638 -5.31507,-2.71154 -5.31506,-2.71155 -4.59586,-5.36922 -4.59584,-5.36922 -1.54741,-5.164792 -1.54741,-5.164795 v -5.023948 -5.023948 l 1.54741,-5.164794 1.54741,-5.164796 4.48692,-5.241965 4.48694,-5.241966 7.59292,-3.714869 7.5929,-3.714869 9.37275,0.11028 9.37275,0.11028 4.85274,2.060434 4.85276,2.060435 5.57714,5.038609 5.57713,5.038608 2.5348,4.968597 2.53479,4.968598 0.82805,5.178369 0.82805,5.178369 -1.55902,5.789787 -1.55903,5.789786 -3.34033,5.04758 -3.34032,5.04757 -5.2218,3.45562 -5.22179,3.45562 -7.61839,1.98434 -7.61838,1.98432 -2.0532,-0.14608 -2.0532,-0.14609 z m 20.85088,-11.93247 5.20297,-2.65436 3.47428,-4.555028 3.4743,-4.555028 0.76532,-4.716106 0.76532,-4.716105 -0.8948,-4.769681 -0.8948,-4.769683 -4.25614,-4.847465 -4.25613,-4.847465 -5.34476,-2.428077 -5.34477,-2.428078 H 198 192.66667 l -5.34477,2.428078 -5.34476,2.428077 -4.25614,4.847465 -4.25613,4.847465 -0.8948,4.769683 -0.8948,4.769681 0.76532,4.716105 0.76532,4.716106 3.46861,4.547581 3.4686,4.547585 4.92844,2.60287 4.92844,2.60288 7.71979,0.0589 7.71979,0.0589 5.20297,-2.65436 z m 50.69079,11.35262 -6,-1.94341 -4.8797,-4.042 -4.87969,-4.04199 -3.45364,-6.930558 -3.45364,-6.930556 v -6.809748 -6.809747 l 3.437,-6.897167 3.437,-6.897166 4.22967,-3.575511 4.22966,-3.575511 5.8282,-2.589626 5.82819,-2.589627 10.39911,0.472248 10.39909,0.472248 0.89959,0.899589 0.89958,0.899588 -0.91102,4.147903 -0.91104,4.147904 -2.88251,-1.052563 -2.88252,-1.052561 -8.18331,0.05687 -8.18329,0.05687 -5.32184,3.521824 -5.32183,3.521823 -2.99132,6.179233 -2.99132,6.179233 0.66876,5.933149 0.66875,5.933148 3.40639,5.147399 3.40638,5.147402 6.15442,2.9793 6.1544,2.97929 8.44018,-0.53743 8.44018,-0.53743 4.85416,-3.70245 4.85416,-3.70244 2.30589,-3.513902 2.30591,-3.5139 L 300,64.730656 l 0.66667,-29.397323 5.09249,-0.419335 5.09248,-0.419333 -0.42581,29.752666 L 310,93.999998 l -2.87789,5.333334 -2.87788,5.333328 -3.78879,3.51998 -3.78877,3.51998 -6,3.01313 -6,3.01314 -8.66667,0.45439 -8.66666,0.4544 z M 84.013027,97.666665 l 0.01307,-19.666666 3.148308,-6.761151 3.148308,-6.761152 5.172,-4.284652 5.171997,-4.284652 7.23338,-2.116654 7.23339,-2.116655 8.76661,0.629344 8.76662,0.629344 5.33333,2.744337 5.33334,2.744336 3.49406,3.788778 3.49406,3.788777 2.09801,3.333333 2.098,3.333333 1.2662,5.666667 1.26621,5.666667 h -5.19161 -5.1916 v -2.066214 -2.066213 l -2.15221,-4.26712 -2.15222,-4.26712 -3.39642,-3.631025 -3.39643,-3.631024 -6.57991,-2.185496 -6.57992,-2.185497 -5.45612,0.872469 -5.45612,0.872468 -5.21273,2.929723 -5.21274,2.929722 -3.202627,5.464807 -3.202591,5.464806 v 19.549524 19.549521 h -5.333333 -5.333334 l 0.01307,-19.666665 z m 253.101473,17.109955 -6.21883,-2.43198 -4.10936,-2.92612 -4.10935,-2.92611 -3.42833,-5.85 -3.42832,-5.849992 -0.74453,-7.213873 -0.74455,-7.213872 2.35975,-7.104521 2.35974,-7.10452 6.18822,-6.18822 6.18822,-6.18822 6.52394,-2.22293 6.52394,-2.22293 h 6.85382 6.85381 l 6.69047,1.986858 6.69048,1.986857 5.37141,3.891032 5.37142,3.891032 3.51344,7.050569 3.51345,7.050571 v 6.404873 6.404874 h -21.33333 -21.33334 v -4.666666 -4.666667 h 15.33334 15.33333 v -2.175954 -2.175955 l -2.60079,-4.208165 -2.60078,-4.208165 -5.06588,-2.830496 -5.06588,-2.830496 -6.0948,-0.901006 -6.09481,-0.901006 -5.58937,1.505061 -5.58937,1.505061 -4.84778,4.256396 -4.84776,4.256397 -1.8014,4.311339 -1.80138,4.31134 v 4.752316 4.752316 l 1.80138,4.31134 1.8014,4.311338 4.82883,4.239764 4.82883,4.23977 5.03645,1.39863 5.03644,1.39864 4.73821,0.007 4.73821,0.007 6.95153,-3.46409 6.95152,-3.46409 1.33844,-2.500904 1.33844,-2.5009 4.63849,2.211941 4.6385,2.211943 v 0.90657 0.90657 l -2.69124,3.42136 -2.69124,3.42136 -8.18839,4.09179 -8.18839,4.09172 -9.45371,-0.0624 -9.4537,-0.0624 z m -72.12714,-8.61202 -5.01262,-1.85905 -1.97126,-1.636 -1.97126,-1.636 -2.84122,-4.597181 -2.84121,-4.597181 0.58396,-7.041775 0.58396,-7.041773 3.10924,-4.366524 3.10924,-4.366524 5.46524,-2.482015 5.46524,-2.482013 4.9132,-0.02928 4.9132,-0.02928 3.47379,1.320732 3.47378,1.320732 -1.34804,2.518835 -1.34804,2.518834 -4.37228,-0.92563 L 274,69.827876 l -4.66666,1.01528 -4.66667,1.01528 -3.66667,4.09182 -3.66666,4.091819 v 4.711844 4.711845 l 2.02257,3.911217 2.02256,3.911217 4.19824,2.170992 4.19824,2.17099 6.56457,-0.63077 6.56458,-0.63077 3.54796,-3.544594 L 290,93.27945 l 0.66667,-28.306392 0.66667,-28.306392 3,-0.426068 3,-0.426068 v 28.268689 28.268689 l -2.80103,4.53216 -2.80103,4.532162 -5.1947,2.65014 -5.19471,2.65014 -5.67093,0.65357 L 270,108.02365 Z"
       id="path5198"
       inkscape:connector-curvature="0" />
    <path
       style="fill:#4a9722;stroke-width:1.33333337"
       d="m 6.9083466,105 0.4249868,-29.666668 2.9214476,-5.459573 2.921448,-5.459575 4.794855,-4.209938 4.794856,-4.209939 4.950363,-2.192045 4.950364,-2.192044 10,-0.138443 10,-0.138443 4.666667,1.918228 4.666667,1.918228 4.399403,3.290418 4.399402,3.290417 3.600598,6.124688 3.600597,6.124688 -0.0396,9.333333 -0.0396,9.333333 -2.914412,5.523405 -2.914413,5.5234 -5.654414,4.83997 -5.654414,4.83997 -6.633577,1.96996 -6.633573,1.96996 H 43.333334 39.15067 l -6.94684,-2.06299 -6.946842,-2.06299 2.324958,-3.93584 2.324957,-3.93584 2.713215,0.99883 2.713216,0.99883 h 8.767652 8.767651 l 4.685917,-3.2131 4.685918,-3.21309 3.190876,-4.656783 3.190876,-4.656779 v -7.609522 -7.609523 l -3.793286,-5.47371 -3.793284,-5.473712 -5.605459,-2.713556 -5.60546,-2.713556 h -7.158068 -7.158068 l -5.842277,2.828199 -5.842279,2.828197 -3.578688,5.403374 -3.578688,5.403376 -0.42656,29.101755 -0.42656,29.10176 H 11.148453 6.4833598 Z m 32.1396724,23.66666 0.0182,-6.66666 0.557223,3.685 0.557223,3.685 -0.575423,2.98166 -0.575423,2.98167 z m 23.606838,4.28019 3.321523,-1.6805 0.490132,-2.54505 0.49013,-2.54504 -2.399826,-1.7548 -2.399827,-1.7548 h 1.321505 1.321507 l 1.6,1.6 1.6,1.6 v 2.30477 2.30476 l -2.095239,2.09524 -2.095237,2.09523 -2.238096,-0.0197 -2.238095,-0.0196 z m 15.011811,0.86144 -1.666667,-0.69718 v -1.48889 -1.48889 l 1.6,1.6 1.6,1.6 h 2.4 2.4 v -1.70768 -1.70769 l -4.132985,-1.56002 -4.132986,-1.56003 0.549652,-1.64896 0.549652,-1.64895 1.916667,-0.51818 1.916667,-0.51817 -1.961387,1.36234 -1.961385,1.36235 0.628052,0.46919 0.628053,0.46919 3.761607,1.61798 3.761607,1.61798 -0.441895,2.31866 -0.441893,2.31866 -2.653047,0.25273 -2.653046,0.25273 z m 15.416667,-0.0524 1.75,-0.7003 0.805556,0.80555 0.805554,0.80556 -2.555554,-0.10533 -2.555556,-0.1052 1.75,-0.70029 z m 9.764905,-4.84037 -0.18157,-6.41781 4.33333,0.41781 4.33333,0.41781 V 126 v 2.66666 l -3.58449,0.41397 -3.5845,0.41397 -0.56726,2.91937 -0.56726,2.91936 z M 110.66667,126 v -2 H 107.33333 104 v 2 2 h 3.33333 3.33334 z M 116,133.60106 v -1.06559 l 4.66667,0.5448 4.66667,0.54481 v 0.5208 0.52078 H 120.66667 116 Z M 128.10526,129 128,122.66666 h 1.0656 1.0656 l -0.49557,5 -0.49556,5 -0.46477,1.33334 -0.46477,1.33333 z m 7.68612,2.45059 -2.20863,-2.95489 2.20863,-1.51217 2.20862,-1.51217 -2,-1.38193 -2,-1.38193 1.58798,-0.0204 1.58798,-0.0204 0.86014,1.39174 0.86014,1.39174 -1.61137,1.9416 -1.61139,1.94158 1.6866,2.03222 1.68659,2.03222 -0.52333,0.50387 L 138,134.40549 Z m 7.25664,-2.78393 0.0181,-6.66666 0.55723,3.685 0.55722,3.685 -0.57542,2.98166 -0.57543,2.98167 0.0181,-6.66667 z m 5.71389,3.90477 -2.09524,-2.09524 v -2.30476 -2.30477 l 1.6,-1.6 1.6,-1.6 1.4,0.0406 1.4,0.0405 -2.33333,1.35904 L 148,125.46584 v 2.43716 2.43715 l 1.93595,1.60669 1.93595,1.60669 2.39738,-0.45705 2.39739,-0.45705 0.43568,-3.05977 0.43569,-3.05977 -1.76902,-2.25994 L 154,122 l 2.33334,1.82992 2.33333,1.82993 v 2.90341 2.9034 l -1.6,1.6 -1.6,1.6 h -2.30476 -2.30476 z m 21.00091,-1.03083 -2.71807,-3.12606 2.14429,-1.47159 2.1443,-1.47159 -2,-1.50386 -2,-1.50385 2,0.58046 2,0.58046 -0.2858,3.77504 -0.28579,3.77505 1.44905,1.746 1.44906,1.746 h -0.58948 -0.58948 z M 394.66667,107.57085 V 80.475036 l 2.08572,-6.121245 2.08572,-6.121244 4.656,-4.794131 4.656,-4.794129 5.59162,-2.876371 5.59161,-2.876369 10.05828,-0.601165 10.05827,-0.601166 6.99196,3.00786 6.99196,3.00786 5.04841,5.735296 5.04841,5.735297 1.56802,5.233594 1.56802,5.233594 v 4.60779 4.607787 l -2.0372,5.97886 -2.0372,5.978856 -3.9607,4.80502 -3.96071,4.80502 -6.93055,3.45364 -6.93056,3.45364 h -7.81444 -7.81445 l -5.90799,-1.48765 -5.90798,-1.48764 2.31281,-3.91527 2.3128,-3.91527 2.67143,0.73696 2.67141,0.73696 4.72268,0.79202 4.72268,0.79202 5.55003,-1.49446 5.55002,-1.49447 4.1191,-3.46599 4.11909,-3.465984 2.6082,-5.112495 2.6082,-5.112495 v -4.772901 -4.772901 l -2.6082,-5.112495 -2.6082,-5.112494 -4.09987,-3.449816 -4.09988,-3.449815 -4.95858,-1.377137 -4.9586,-1.377136 h -3.33334 -3.33333 l -4.9586,1.377136 -4.95859,1.377137 -4.08929,3.440915 -4.08929,3.440916 -2.27518,4.174512 -2.27517,4.174512 -0.45819,28.333331 -0.45818,28.33333 h -4.5521 -4.55208 z m -337.77778,24.87359 -0.888889,-0.88889 v -2.94785 -2.94785 l 2.333333,-1.82993 2.333334,-1.82992 -1.823569,2.32567 -1.823566,2.32567 0.63867,3.341 0.638672,3.34099 H 58.037327 57.777778 Z M 89.696487,128 v -6 l 0.577825,3 0.577825,3 -0.577825,3 -0.577825,3 z m 7.74211,3.22222 0.105267,-2.55556 0.700292,1.75 0.700292,1.75 -0.805555,0.80556 -0.805558,0.80555 z M 44.000001,126 v -3.33334 h 3.92131 3.921311 l 0.860143,1.39174 0.860142,1.39174 -1.61138,1.9416 -1.611378,1.94159 h -3.170075 -3.170073 z m 7.67334,-0.33334 L 52.222223,124 h -3.444445 -3.444444 v 2.09273 2.09274 l 2.895563,-0.42607 2.895562,-0.42607 z M 162.66667,126 v -3.33334 h 1.14844 1.14844 L 164.32634,126 l -0.6372,3.33333 h -0.51124 -0.51123 z m -80.000002,-2 -2,-1.2925 1.587977,-0.0204 1.587978,-0.0204 0.824045,1.33334 0.824045,1.33333 -0.412022,-0.0204 -0.412023,-0.0204 z m 178.666672,-7.30174 -6,-1.94341 -4.8797,-4.042 -4.87969,-4.04199 -3.45364,-6.930558 -3.45364,-6.930556 v -6.809748 -6.809747 l 3.437,-6.897167 3.437,-6.897166 4.22967,-3.575511 4.22966,-3.575511 5.8282,-2.589626 5.82819,-2.589627 10.39911,0.472248 10.39909,0.472248 0.89959,0.899589 0.89958,0.899588 -0.91102,4.147903 -0.91104,4.147904 -2.88251,-1.052563 -2.88252,-1.052561 -8.18331,0.05687 -8.18329,0.05687 -5.32184,3.521824 -5.32183,3.521823 -2.99132,6.179233 -2.99132,6.179233 0.66876,5.933149 0.66875,5.933148 3.40639,5.147399 3.40638,5.147402 6.15442,2.9793 6.1544,2.97929 8.44018,-0.53743 8.44018,-0.53743 4.85416,-3.70245 4.85416,-3.70244 2.30589,-3.513902 2.30591,-3.5139 L 300,64.730656 l 0.66667,-29.397323 5.09249,-0.419335 5.09248,-0.419333 -0.42581,29.752666 L 310,93.999998 l -2.87789,5.333334 -2.87788,5.333328 -3.78879,3.51998 -3.78877,3.51998 -6,3.01313 -6,3.01314 -8.66667,0.45439 -8.66666,0.4544 z M 84.058525,98.333332 l 0.05852,-19 1.78529,-5.002708 1.785289,-5.002708 3.329188,-4.364789 3.329188,-4.364791 7.02756,-3.824878 7.02757,-3.824879 8.79943,-0.622748 8.79944,-0.622747 5.6106,1.518086 5.6106,1.518085 5.72273,4.306197 5.72273,4.306198 3.66667,7.229927 L 156,77.811505 v 3.094247 3.094247 h -4.39014 -4.39012 l -1.54841,-5.789319 -1.5484,-5.78932 -5.31924,-4.805607 -5.31923,-4.805607 -5.72843,-1.542508 -5.72844,-1.542508 -5.96953,0.818216 -5.96953,0.818214 -5.01793,3.320707 -5.01792,3.320706 -2.693009,5.278728 -2.693003,5.27873 v 19.38645 19.386449 h -5.333333 -5.333334 l 0.05852,-18.999998 z m 99.444815,17.042438 -5.16335,-1.84051 -4.83665,-3.83449 -4.83667,-3.83449 L 165,98.694052 161.33334,91.521825 v -6.832454 -6.832454 l 3.43812,-6.899416 3.43813,-6.899415 5.11093,-4.047944 5.11095,-4.047943 5.02301,-2.098747 5.02302,-2.098748 h 8.96966 8.96968 l 6.45826,2.852614 6.45824,2.852612 4.45017,4.265034 4.45017,4.265035 2.77644,5.333333 2.77646,5.333333 v 8 8 l -2.77646,5.333333 -2.77644,5.333332 -4.45017,4.2579 -4.45017,4.25789 -6,2.71282 -6,2.71283 -9.33334,-0.0292 -9.33333,-0.0292 -5.16333,-1.84052 z m 27.28117,-9.43671 3.48631,-1.80284 4.17866,-4.759231 4.17866,-4.759229 0.84862,-3.381186 0.84863,-3.381185 -0.62824,-6.538153 -0.62823,-6.538153 -3.49821,-4.586384 -3.4982,-4.586385 -5.79056,-2.803158 -5.79055,-2.803157 H 198 191.5086 l -5.79054,2.803157 -5.79056,2.803158 -3.4982,4.586385 -3.49822,4.586384 -0.62822,6.538153 -0.62824,6.538153 0.84862,3.381185 0.84863,3.381186 4.16359,4.74207 4.1636,4.74207 2.81713,1.51391 2.81715,1.51392 4,1.01495 4,1.01494 5.98244,-0.70886 5.98242,-0.70886 z m 127.12345,8.97065 -6.7587,-2.33656 -3.6538,-2.87408 -3.65379,-2.87407 -2.73888,-3.48193 -2.73889,-3.481926 -1.92422,-6.263907 -1.92422,-6.263905 0.80362,-6.723121 0.80362,-6.723122 3.9765,-6.962605 3.97651,-6.962605 5.32011,-3.853859 5.32009,-3.853858 6.79995,-1.631282 6.79994,-1.631282 7.65999,0.694584 7.65999,0.694582 5.84877,2.603166 5.84879,2.603165 4.49604,4.539785 4.49603,4.539786 2.47468,5.333333 2.47469,5.333333 0.0293,6.333333 0.0293,6.333333 h -21.33334 -21.33333 v -4.666666 -4.666667 h 16 16 l -0.022,-1 -0.0219,-1 -2.97806,-5.333333 -2.97807,-5.333333 -7.33333,-3.773621 -7.33334,-3.773623 -8.25004,0.6134 -8.25004,0.613399 -4.76176,2.942926 -4.76176,2.942926 -3.32153,5.667773 -3.32164,5.667773 v 6.43238 6.43238 l 3.20258,5.464806 3.2026,5.464802 5.32334,2.99189 5.32334,2.99189 6.12167,0.83907 6.12167,0.83907 6.14536,-1.7206 6.14535,-1.72059 4.41922,-4.16787 4.41923,-4.167866 4.12116,1.951744 4.12115,1.951742 v 1.02725 1.02725 l -4.83892,4.6995 -4.83892,4.6995 -7.2111,2.69802 -7.2111,2.69801 -7.61665,-0.0435 -7.61665,-0.0435 z m -70.65198,-8.71609 -5.4107,-1.52696 -2.74073,-2 -2.74073,-2 -2.84359,-4.666662 -2.84359,-4.666666 -0.005,-4.376159 -0.005,-4.376157 1.83578,-4.290509 1.83579,-4.290508 3.83088,-3.587699 3.83088,-3.587699 6,-1.576579 6,-1.57658 5.64887,1.54421 5.64886,1.544211 -1.54334,2.47129 -1.54335,2.471292 -3.89656,-1.358345 -3.89655,-1.358345 -5.1107,1.531204 -5.11071,1.531205 -3.43159,4.078217 -3.4316,4.078219 v 6.031032 6.031033 l 4.53334,4.533333 4.53333,4.533332 h 7.28685 7.28686 l 3.67472,-2.890532 3.67472,-2.890533 1.83842,-4.399976 L 292,86.752314 V 62.042824 37.333333 h 2.66667 2.66667 v 26.732879 26.73288 l -1.95211,3.774965 -1.95212,3.774965 -4.15065,3.492548 -4.15064,3.49254 -3.23058,0.66628 -3.23057,0.66627 -3,0.52696 -3,0.52697 z"
       id="path5196"
       inkscape:connector-curvature="0" />
    <path
       style="fill:#309600;stroke-width:1.33333337"
       d="m 6.9083466,105 0.4249868,-29.666668 2.9214476,-5.459573 2.921448,-5.459575 4.794855,-4.209938 4.794856,-4.209939 4.950363,-2.192045 4.950364,-2.192044 10,-0.138443 10,-0.138443 4.666667,1.918228 4.666667,1.918228 4.399403,3.290418 4.399402,3.290417 3.600598,6.124688 3.600597,6.124688 -0.0396,9.333333 -0.0396,9.333333 -2.914412,5.523405 -2.914413,5.5234 -5.654414,4.83997 -5.654414,4.83997 -6.633577,1.96996 -6.633573,1.96996 H 43.333334 39.15067 l -6.94684,-2.06299 -6.946842,-2.06299 2.324958,-3.93584 2.324957,-3.93584 2.713215,0.99883 2.713216,0.99883 h 8.767652 8.767651 l 4.685917,-3.2131 4.685918,-3.21309 3.190876,-4.656783 3.190876,-4.656779 v -7.609522 -7.609523 l -3.793286,-5.47371 -3.793284,-5.473712 -5.605459,-2.713556 -5.60546,-2.713556 h -7.158068 -7.158068 l -5.842277,2.828199 -5.842279,2.828197 -3.578688,5.403374 -3.578688,5.403376 -0.42656,29.101755 -0.42656,29.10176 H 11.148453 6.4833598 Z M 394.66667,108.23752 V 81.808369 l 2.0372,-5.97886 2.0372,-5.978858 3.82207,-4.636821 3.82205,-4.636823 7.14075,-3.955171 7.14073,-3.95517 10.66667,0.02308 10.66667,0.02308 5.39326,2.86454 5.39327,2.86454 5.5228,5.991534 5.5228,5.991533 1.55471,5.773719 1.55469,5.773717 -0.78175,5.703441 -0.78173,5.703442 -2.04729,3.959024 -2.0473,3.959024 -4.29869,4.89594 -4.29869,4.89594 -6.67638,3.10903 -6.67637,3.10903 -7.46771,0.0131 -7.46769,0.013 -4.53231,-1.53127 -4.53229,-1.53128 -0.51395,-0.42711 -0.51394,-0.42712 2.16864,-3.30976 2.16864,-3.30975 4.13614,1.44186 4.13615,1.44187 7.35389,-0.75899 7.35391,-0.75898 5.29327,-3.50292 5.29326,-3.50292 2.53271,-5.578482 2.53272,-5.57848 0.0293,-5.245701 0.0293,-5.2457 -2.8282,-5.842277 -2.8282,-5.842279 -5.40776,-3.578687 -5.40776,-3.578688 h -10.09738 -10.09737 l -4.93279,3.067209 -4.9328,3.067208 -3.0672,4.932792 -3.06732,4.93279 -0.42656,28.999995 -0.42656,29 h -4.57344 -4.57344 z M 103.00291,128 l 0.0269,-6 0.56708,2.91801 0.56708,2.91801 2.91801,0.56708 2.91801,0.56708 -2.90223,0.18158 -2.90224,0.18157 -0.60976,2.33333 L 102.97601,134 Z m 25.33334,0.66666 0.0269,-5.33333 0.57987,3.01555 0.57986,3.01554 -0.60677,2.31779 L 128.30934,134 Z m -83.336249,-0.21637 1.666666,-0.67251 1.666667,0.67251 1.666667,0.67251 h -3.333334 -3.333333 z m 216.576819,-12.31935 -7.08984,-2.44866 -4.69366,-4.50781 -4.69366,-4.50781 -2.82291,-5.333328 -2.82292,-5.333334 -0.004,-8 -0.004,-7.999999 2.42672,-4.666667 2.42672,-4.666667 4.18405,-4.450171 4.18407,-4.450172 5.33333,-2.860083 5.33334,-2.860083 10.93333,-0.02308 10.93333,-0.02308 1.35634,1.35633 1.35632,1.356328 -0.74912,2.864646 -0.74912,2.864646 -9.60696,-0.726574 -9.60696,-0.726572 -4.60026,2.32823 -4.60096,2.32823 -3.12668,2.844036 -3.12669,2.844036 -1.87331,3.600453 L 248,78.534239 v 6.820535 6.820535 l 1.49332,2.912344 1.49334,2.912345 4.1539,4.387342 4.15391,4.38734 6.94795,2.01982 6.94794,2.01982 5.07148,-0.92076 5.0715,-0.92077 4.88772,-2.45621 4.8877,-2.45621 2.62764,-3.69685 2.62764,-3.696855 1.47722,-5.333333 1.47721,-5.333334 0.008,-24.999999 0.007,-25 h 4.76152 4.76152 L 310.42819,64.333332 310,92.666665 l -2.94425,5.504284 -2.94427,5.504281 -5.9888,5.27156 -5.9888,5.27155 -6.88672,2.22416 -6.88672,2.22416 -4.84688,-0.0435 -4.84689,-0.0435 -7.08985,-2.44867 z M 84.058525,98.333332 l 0.05852,-19 1.78529,-5.002708 1.785289,-5.002708 3.329188,-4.364789 3.329188,-4.364791 7.02756,-3.824878 7.02757,-3.824879 8.79943,-0.622748 8.79944,-0.622747 5.6106,1.518086 5.6106,1.518085 5.72273,4.306197 5.72273,4.306198 3.66667,7.229927 L 156,77.811505 v 3.094247 3.094247 h -4.39014 -4.39012 l -1.54841,-5.789319 -1.5484,-5.78932 -5.31924,-4.805607 -5.31923,-4.805607 -5.72843,-1.542508 -5.72844,-1.542508 -5.96953,0.818216 -5.96953,0.818214 -5.01793,3.320707 -5.01792,3.320706 -2.693009,5.278728 -2.693003,5.27873 v 19.38645 19.386449 h -5.333333 -5.333334 l 0.05852,-18.999998 z m 99.444815,17.042438 -5.16335,-1.84051 -4.83665,-3.83449 -4.83667,-3.83449 L 165,98.694052 161.33334,91.521825 v -6.832454 -6.832454 l 3.43812,-6.899416 3.43813,-6.899415 5.11093,-4.047944 5.11095,-4.047943 5.02301,-2.098747 5.02302,-2.098748 h 8.96966 8.96968 l 6.45826,2.852614 6.45824,2.852612 4.45017,4.265034 4.45017,4.265035 2.77644,5.333333 2.77646,5.333333 v 8 8 l -2.77646,5.333333 -2.77644,5.333332 -4.45017,4.2579 -4.45017,4.25789 -6,2.71282 -6,2.71283 -9.33334,-0.0292 -9.33333,-0.0292 -5.16333,-1.84052 z m 27.28117,-9.43671 3.48631,-1.80284 4.17866,-4.759231 4.17866,-4.759229 0.84862,-3.381186 0.84863,-3.381185 -0.62824,-6.538153 -0.62823,-6.538153 -3.49821,-4.586384 -3.4982,-4.586385 -5.79056,-2.803158 -5.79055,-2.803157 H 198 191.5086 l -5.79054,2.803157 -5.79056,2.803158 -3.4982,4.586385 -3.49822,4.586384 -0.62822,6.538153 -0.62824,6.538153 0.84862,3.381185 0.84863,3.381186 4.16359,4.74207 4.1636,4.74207 2.81713,1.51391 2.81715,1.51392 4,1.01495 4,1.01494 5.98244,-0.70886 5.98242,-0.70886 z m 127.12345,8.97065 -6.7587,-2.33656 -3.6538,-2.87408 -3.65379,-2.87407 -2.73888,-3.48193 -2.73889,-3.481926 -1.92422,-6.263907 -1.92422,-6.263905 0.80362,-6.723121 0.80362,-6.723122 3.9765,-6.962605 3.97651,-6.962605 5.32011,-3.853859 5.32009,-3.853858 6.79995,-1.631282 6.79994,-1.631282 7.65999,0.694584 7.65999,0.694582 5.84877,2.603166 5.84879,2.603165 4.49604,4.539785 4.49603,4.539786 2.47468,5.333333 2.47469,5.333333 0.0293,6.333333 0.0293,6.333333 h -21.33334 -21.33333 v -4.666666 -4.666667 h 16 16 l -0.022,-1 -0.0219,-1 -2.97806,-5.333333 -2.97807,-5.333333 -7.33333,-3.773621 -7.33334,-3.773623 -8.25004,0.6134 -8.25004,0.613399 -4.76176,2.942926 -4.76176,2.942926 -3.32153,5.667773 -3.32164,5.667773 v 6.43238 6.43238 l 3.20258,5.464806 3.2026,5.464802 5.32334,2.99189 5.32334,2.99189 6.12167,0.83907 6.12167,0.83907 6.14536,-1.7206 6.14535,-1.72059 4.41922,-4.16787 4.41923,-4.167866 4.12116,1.951744 4.12115,1.951742 v 1.02725 1.02725 l -4.83892,4.6995 -4.83892,4.6995 -7.2111,2.69802 -7.2111,2.69801 -7.61665,-0.0435 -7.61665,-0.0435 z m -70.65198,-8.71609 -5.4107,-1.52696 -2.74073,-2 -2.74073,-2 -2.84359,-4.666662 -2.84359,-4.666666 -0.005,-4.376159 -0.005,-4.376157 1.83578,-4.290509 1.83579,-4.290508 3.83088,-3.587699 3.83088,-3.587699 6,-1.576579 6,-1.57658 5.64887,1.54421 5.64886,1.544211 -1.54334,2.47129 -1.54335,2.471292 -3.89656,-1.358345 -3.89655,-1.358345 -5.1107,1.531204 -5.11071,1.531205 -3.43159,4.078217 -3.4316,4.078219 v 6.031032 6.031033 l 4.53334,4.533333 4.53333,4.533332 h 7.28685 7.28686 l 3.67472,-2.890532 3.67472,-2.890533 1.83842,-4.399976 L 292,86.752314 V 62.042824 37.333333 h 2.66667 2.66667 v 26.732879 26.73288 l -1.95211,3.774965 -1.95212,3.774965 -4.15065,3.492548 -4.15064,3.49254 -3.23058,0.66628 -3.23057,0.66627 -3,0.52696 -3,0.52697 z"
       id="path5194"
       inkscape:connector-curvature="0" />
    <path
       style="fill:#060631;stroke-width:1.33333337"
       d="m 6.9083466,105 0.4249868,-29.666668 2.9214476,-5.459573 2.921448,-5.459575 4.794855,-4.209938 4.794856,-4.209939 4.950363,-2.192045 4.950364,-2.192044 10,-0.138443 10,-0.138443 4.666667,1.918228 4.666667,1.918228 4.399403,3.290418 4.399402,3.290417 3.600598,6.124688 3.600597,6.124688 -0.0396,9.333333 -0.0396,9.333333 -2.914412,5.523405 -2.914413,5.5234 -5.654414,4.83997 -5.654414,4.83997 -6.633577,1.96996 -6.633573,1.96996 H 43.333334 39.15067 l -6.94684,-2.06299 -6.946842,-2.06299 2.324958,-3.93584 2.324957,-3.93584 2.713215,0.99883 2.713216,0.99883 h 8.767652 8.767651 l 4.685917,-3.2131 4.685918,-3.21309 3.190876,-4.656783 3.190876,-4.656779 v -7.609522 -7.609523 l -3.793286,-5.47371 -3.793284,-5.473712 -5.605459,-2.713556 -5.60546,-2.713556 h -7.158068 -7.158068 l -5.842277,2.828199 -5.842279,2.828197 -3.578688,5.403374 -3.578688,5.403376 -0.42656,29.101755 -0.42656,29.10176 H 11.148453 6.4833598 Z m 77.1501784,-6.666668 0.05852,-19 1.78529,-5.002708 1.785289,-5.002708 3.329188,-4.364789 3.329188,-4.364791 7.02756,-3.824878 7.02757,-3.824879 8.79943,-0.622748 8.79944,-0.622747 5.6106,1.518086 5.6106,1.518085 5.72273,4.306197 5.72273,4.306198 3.66667,7.229927 L 156,77.811505 v 3.094247 3.094247 h -4.39014 -4.39012 l -1.54841,-5.789319 -1.5484,-5.78932 -5.31924,-4.805607 -5.31923,-4.805607 -5.72843,-1.542508 -5.72844,-1.542508 -5.96953,0.818216 -5.96953,0.818214 -5.01793,3.320707 -5.01792,3.320706 -2.693009,5.278728 -2.693003,5.27873 v 19.38645 19.386449 h -5.333333 -5.333334 l 0.05852,-18.999998 z m 99.444815,17.042438 -5.16335,-1.84051 -4.83665,-3.83449 -4.83667,-3.83449 L 165,98.694052 161.33334,91.521825 v -6.832454 -6.832454 l 3.43812,-6.899416 3.43813,-6.899415 5.11093,-4.047944 5.11095,-4.047943 5.02301,-2.098747 5.02302,-2.098748 h 8.96966 8.96968 l 6.45826,2.852614 6.45824,2.852612 4.45017,4.265034 4.45017,4.265035 2.77644,5.333333 2.77646,5.333333 v 8 8 l -2.77646,5.333333 -2.77644,5.333332 -4.45017,4.2579 -4.45017,4.25789 -6,2.71282 -6,2.71283 -9.33334,-0.0292 -9.33333,-0.0292 -5.16333,-1.84052 z m 27.28117,-9.43671 3.48631,-1.80284 4.17866,-4.759231 4.17866,-4.759229 0.84862,-3.381186 0.84863,-3.381185 -0.62824,-6.538153 -0.62823,-6.538153 -3.49821,-4.586384 -3.4982,-4.586385 -5.79056,-2.803158 -5.79055,-2.803157 H 198 191.5086 l -5.79054,2.803157 -5.79056,2.803158 -3.4982,4.586385 -3.49822,4.586384 -0.62822,6.538153 -0.62824,6.538153 0.84862,3.381185 0.84863,3.381186 4.16359,4.74207 4.1636,4.74207 2.81713,1.51391 2.81715,1.51392 4,1.01495 4,1.01494 5.98244,-0.70886 5.98242,-0.70886 z m 127.12345,8.97065 -6.7587,-2.33656 -3.6538,-2.87408 -3.65379,-2.87407 -2.73888,-3.48193 -2.73889,-3.481926 -1.92422,-6.263907 -1.92422,-6.263905 0.80362,-6.723121 0.80362,-6.723122 3.9765,-6.962605 3.97651,-6.962605 5.32011,-3.853859 5.32009,-3.853858 6.79995,-1.631282 6.79994,-1.631282 7.65999,0.694584 7.65999,0.694582 5.84877,2.603166 5.84879,2.603165 4.49604,4.539785 4.49603,4.539786 2.47468,5.333333 2.47469,5.333333 0.0293,6.333333 0.0293,6.333333 h -21.33334 -21.33333 v -4.666666 -4.666667 h 16 16 l -0.022,-1 -0.0219,-1 -2.97806,-5.333333 -2.97807,-5.333333 -7.33333,-3.773621 -7.33334,-3.773623 -8.25004,0.6134 -8.25004,0.613399 -4.76176,2.942926 -4.76176,2.942926 -3.32153,5.667773 -3.32164,5.667773 v 6.43238 6.43238 l 3.20258,5.464806 3.2026,5.464802 5.32334,2.99189 5.32334,2.99189 6.12167,0.83907 6.12167,0.83907 6.14536,-1.7206 6.14535,-1.72059 4.41922,-4.16787 4.41923,-4.167866 4.12116,1.951744 4.12115,1.951742 v 1.02725 1.02725 l -4.83892,4.6995 -4.83892,4.6995 -7.2111,2.69802 -7.2111,2.69801 -7.61665,-0.0435 -7.61665,-0.0435 z m -70.65198,-8.71609 -5.4107,-1.52696 -2.74073,-2 -2.74073,-2 -2.84359,-4.666662 -2.84359,-4.666666 -0.005,-4.376159 -0.005,-4.376157 1.83578,-4.290509 1.83579,-4.290508 3.83088,-3.587699 3.83088,-3.587699 6,-1.576579 6,-1.57658 5.64887,1.54421 5.64886,1.544211 -1.54334,2.47129 -1.54335,2.471292 -3.89656,-1.358345 -3.89655,-1.358345 -5.1107,1.531204 -5.11071,1.531205 -3.43159,4.078217 -3.4316,4.078219 v 6.031032 6.031033 l 4.53334,4.533333 4.53333,4.533332 h 7.28685 7.28686 l 3.67472,-2.890532 3.67472,-2.890533 1.83842,-4.399976 L 292,86.752314 V 62.042824 37.333333 h 2.66667 2.66667 v 26.732879 26.73288 l -1.95211,3.774965 -1.95212,3.774965 -4.15065,3.492548 -4.15064,3.49254 -3.23058,0.66628 -3.23057,0.66627 -3,0.52696 -3,0.52697 z"
       id="path5192"
       inkscape:connector-curvature="0" />
  </g>
</svg>
